<svg width="32" height="32" viewBox="0 0 32 32" fill="none" xmlns="http://www.w3.org/2000/svg">
<path d="M23.0338 3.74125C23.0677 3.61434 23.1263 3.49536 23.2063 3.39111C23.2862 3.28686 23.3859 3.19939 23.4997 3.13368C23.6134 3.06798 23.739 3.02534 23.8693 3.00819C23.9995 2.99104 24.1319 2.99973 24.2588 3.03375C26.2463 3.5675 27.8838 4.7975 28.8663 6.5C28.9989 6.72974 29.0348 7.00275 28.9661 7.25897C28.8974 7.51519 28.7298 7.73364 28.5 7.86625C28.2703 7.99885 27.9973 8.03476 27.741 7.96608C27.4848 7.89739 27.2664 7.72974 27.1338 7.5C26.4188 6.26 25.2138 5.36 23.7413 4.96625C23.6143 4.9323 23.4954 4.87368 23.3911 4.79374C23.2869 4.7138 23.1994 4.6141 23.1337 4.50033C23.068 4.38657 23.0253 4.26098 23.0082 4.13073C22.9911 4.00049 22.9997 3.86814 23.0338 3.74125ZM9.94751 28.215C8.77501 27.29 7.79501 26.11 6.86626 24.5C6.8006 24.3862 6.71317 24.2865 6.60898 24.2066C6.50478 24.1266 6.38585 24.0679 6.25899 24.0339C6.13212 23.9999 5.99979 23.9912 5.86957 24.0083C5.73934 24.0255 5.61377 24.0681 5.50001 24.1337C5.38625 24.1994 5.28654 24.2868 5.20657 24.391C5.1266 24.4952 5.06793 24.6142 5.03392 24.741C4.99991 24.8679 4.99123 25.0002 5.00836 25.1304C5.02549 25.2607 5.0681 25.3862 5.13376 25.5C6.19501 27.3375 7.33001 28.6987 8.70876 29.785C8.91728 29.9454 9.18063 30.0172 9.44173 29.9848C9.70282 29.9524 9.94062 29.8184 10.1036 29.6118C10.2666 29.4053 10.3416 29.1428 10.3123 28.8814C10.2831 28.6199 10.152 28.3805 9.94751 28.215ZM24.5238 7.3025C24.3942 7.07163 24.2201 6.86878 24.0116 6.7057C23.8031 6.54262 23.5643 6.42256 23.309 6.35248C23.0537 6.2824 22.7871 6.2637 22.5245 6.29745C22.262 6.3312 22.0087 6.41675 21.7795 6.54912C21.5502 6.68149 21.3495 6.85805 21.189 7.06857C21.0285 7.27909 20.9114 7.51938 20.8445 7.7755C20.7776 8.03162 20.7622 8.29848 20.7992 8.5606C20.8362 8.82273 20.9248 9.0749 21.06 9.3025L23.06 12.7662C23.1257 12.88 23.1683 13.0056 23.1855 13.1358C23.2026 13.266 23.1939 13.3984 23.1599 13.5252C23.1259 13.6521 23.0672 13.7711 22.9872 13.8752C22.9073 13.9794 22.8075 14.0669 22.6938 14.1325C21.7752 14.663 21.1049 15.5366 20.8304 16.5612C20.5559 17.5859 20.6997 18.6776 21.23 19.5962C21.3626 19.826 21.3985 20.099 21.3298 20.3552C21.2612 20.6114 21.0935 20.8299 20.8638 20.9625C20.634 21.0951 20.361 21.131 20.1048 21.0623C19.8486 20.9936 19.6301 20.826 19.4975 20.5962C18.7902 19.3674 18.5403 17.9279 18.7919 16.5325C19.0435 15.1371 19.7805 13.8757 20.8725 12.9712L15.8288 4.24C15.5635 3.78051 15.1267 3.4452 14.6142 3.30783C14.1018 3.17046 13.5557 3.24228 13.0963 3.5075C12.6368 3.77271 12.3015 4.2096 12.1641 4.72204C12.0267 5.23448 12.0985 5.78051 12.3638 6.24L16.3638 13.1687C16.4881 13.3978 16.5182 13.6664 16.4475 13.9173C16.3767 14.1681 16.2108 14.3815 15.9851 14.5119C15.7594 14.6422 15.4917 14.6793 15.2391 14.6152C14.9864 14.5512 14.7688 14.3909 14.6325 14.1687L9.63251 5.5075C9.36729 5.04801 8.93041 4.7127 8.41796 4.57533C7.90552 4.43796 7.3595 4.50978 6.90001 4.775C6.44052 5.04021 6.10521 5.4771 5.96784 5.98954C5.83047 6.50198 5.90229 7.04801 6.16751 7.5075L11.6675 17.0337C11.7373 17.1476 11.7836 17.2742 11.8037 17.4063C11.8238 17.5383 11.8172 17.673 11.7844 17.8024C11.7515 17.9319 11.6931 18.0534 11.6125 18.1599C11.5319 18.2664 11.4309 18.3557 11.3152 18.4225C11.1996 18.4893 11.0718 18.5322 10.9392 18.5488C10.8067 18.5654 10.6723 18.5553 10.5437 18.519C10.4152 18.4828 10.2952 18.4212 10.1909 18.3378C10.0866 18.2545 9.99998 18.1511 9.93626 18.0337L6.43626 11.9725C6.30494 11.745 6.13009 11.5456 5.9217 11.3856C5.7133 11.2257 5.47545 11.1083 5.22171 11.0403C4.96798 10.9723 4.70333 10.9549 4.44288 10.9892C4.18243 11.0234 3.93127 11.1087 3.70376 11.24C3.47624 11.3713 3.27682 11.5462 3.11688 11.7546C2.95694 11.9629 2.83961 12.2008 2.77159 12.4545C2.70357 12.7083 2.68619 12.9729 2.72045 13.2334C2.75471 13.4938 2.83994 13.745 2.97126 13.9725L8.47126 23.4987C9.93333 26.0186 12.3353 27.8555 15.1501 28.6065C17.9649 29.3575 20.9627 28.9611 23.4857 27.5045C26.0086 26.0479 27.8507 23.6499 28.6078 20.8367C29.3648 18.0235 28.975 15.0248 27.5238 12.4987L24.5238 7.3025Z" fill="#0E2515"/>
</svg>
