<svg width="36" height="37" viewBox="0 0 36 37" fill="none" xmlns="http://www.w3.org/2000/svg">
<rect y="0.5" width="36" height="36" rx="18" fill="#1C4A2A"/>
<path d="M26.75 16.9375C26.75 17.3701 26.6217 17.7931 26.3813 18.1528C26.141 18.5125 25.7993 18.7929 25.3996 18.9585C24.9999 19.1241 24.5601 19.1674 24.1357 19.083C23.7114 18.9986 23.3216 18.7902 23.0157 18.4843C22.7098 18.1784 22.5014 17.7886 22.417 17.3643C22.3326 16.9399 22.3759 16.5001 22.5415 16.1004C22.7071 15.7007 22.9875 15.359 23.3472 15.1187C23.7069 14.8783 24.1299 14.75 24.5625 14.75C25.1427 14.75 25.6991 14.9805 26.1093 15.3907C26.5195 15.8009 26.75 16.3573 26.75 16.9375ZM13.625 16.9375C13.625 16.5049 13.4967 16.0819 13.2563 15.7222C13.016 15.3625 12.6743 15.0821 12.2746 14.9165C11.8749 14.7509 11.4351 14.7076 11.0107 14.792C10.5864 14.8764 10.1966 15.0848 9.8907 15.3907C9.58478 15.6966 9.37644 16.0864 9.29203 16.5107C9.20763 16.9351 9.25095 17.3749 9.41651 17.7746C9.58208 18.1743 9.86246 18.516 10.2222 18.7563C10.5819 18.9967 11.0049 19.125 11.4375 19.125C12.0177 19.125 12.5741 18.8945 12.9843 18.4843C13.3945 18.0741 13.625 17.5177 13.625 16.9375ZM15.1875 15.375C15.6201 15.375 16.0431 15.2467 16.4028 15.0063C16.7625 14.766 17.0429 14.4243 17.2085 14.0246C17.3741 13.6249 17.4174 13.1851 17.333 12.7607C17.2486 12.3364 17.0402 11.9466 16.7343 11.6407C16.4284 11.3348 16.0386 11.1264 15.6143 11.042C15.1899 10.9576 14.7501 11.0009 14.3504 11.1665C13.9507 11.3321 13.609 11.6125 13.3687 11.9722C13.1283 12.3319 13 12.7549 13 13.1875C13 13.7677 13.2305 14.3241 13.6407 14.7343C14.0509 15.1445 14.6073 15.375 15.1875 15.375ZM20.8125 15.375C21.2451 15.375 21.6681 15.2467 22.0278 15.0063C22.3875 14.766 22.6679 14.4243 22.8335 14.0246C22.9991 13.6249 23.0424 13.1851 22.958 12.7607C22.8736 12.3364 22.6652 11.9466 22.3593 11.6407C22.0534 11.3348 21.6636 11.1264 21.2393 11.042C20.8149 10.9576 20.3751 11.0009 19.9754 11.1665C19.5757 11.3321 19.234 11.6125 18.9937 11.9722C18.7533 12.3319 18.625 12.7549 18.625 13.1875C18.625 13.7677 18.8555 14.3241 19.2657 14.7343C19.6759 15.1445 20.2323 15.375 20.8125 15.375ZM22.6188 20.1297C22.3013 19.9546 22.0215 19.7185 21.7953 19.4351C21.5692 19.1517 21.4011 18.8265 21.3008 18.4781C21.093 17.7635 20.6588 17.1356 20.0636 16.6888C19.4684 16.242 18.7443 16.0004 18 16.0004C17.2558 16.0004 16.5316 16.242 15.9364 16.6888C15.3412 17.1356 14.907 17.7635 14.6992 18.4781C14.4985 19.1792 14.0279 19.772 13.3906 20.1266C12.7793 20.4573 12.2957 20.9825 12.0164 21.6189C11.737 22.2554 11.6778 22.9668 11.8481 23.6407C12.0184 24.3146 12.4085 24.9124 12.9567 25.3397C13.5049 25.767 14.1799 25.9994 14.875 26C15.2915 26.0012 15.704 25.918 16.0875 25.7555C17.3102 25.2512 18.6828 25.2512 19.9055 25.7555C20.6461 26.0776 21.4826 26.1004 22.2397 25.8193C22.9968 25.5382 23.6156 24.9749 23.9665 24.2475C24.3173 23.5201 24.373 22.6851 24.1217 21.9175C23.8705 21.15 23.3318 20.5096 22.6188 20.1305V20.1297Z" fill="white"/>
</svg>
