<svg width="33" height="32" viewBox="0 0 33 32" fill="none" xmlns="http://www.w3.org/2000/svg">
<path d="M26.5 4H23.5V3C23.5 2.73478 23.3946 2.48043 23.2071 2.29289C23.0196 2.10536 22.7652 2 22.5 2C22.2348 2 21.9804 2.10536 21.7929 2.29289C21.6054 2.48043 21.5 2.73478 21.5 3V4H11.5V3C11.5 2.73478 11.3946 2.48043 11.2071 2.29289C11.0196 2.10536 10.7652 2 10.5 2C10.2348 2 9.98043 2.10536 9.79289 2.29289C9.60536 2.48043 9.5 2.73478 9.5 3V4H6.5C5.96957 4 5.46086 4.21071 5.08579 4.58579C4.71071 4.96086 4.5 5.46957 4.5 6V26C4.5 26.5304 4.71071 27.0391 5.08579 27.4142C5.46086 27.7893 5.96957 28 6.5 28H26.5C27.0304 28 27.5391 27.7893 27.9142 27.4142C28.2893 27.0391 28.5 26.5304 28.5 26V6C28.5 5.46957 28.2893 4.96086 27.9142 4.58579C27.5391 4.21071 27.0304 4 26.5 4ZM14.5 23C14.5 23.2652 14.3946 23.5196 14.2071 23.7071C14.0196 23.8946 13.7652 24 13.5 24C13.2348 24 12.9804 23.8946 12.7929 23.7071C12.6054 23.5196 12.5 23.2652 12.5 23V16.6175L11.9475 16.895C11.7101 17.0137 11.4353 17.0332 11.1836 16.9493C10.9318 16.8654 10.7237 16.6849 10.605 16.4475C10.4863 16.2101 10.4668 15.9353 10.5507 15.6836C10.6346 15.4318 10.8151 15.2237 11.0525 15.105L13.0525 14.105C13.205 14.0287 13.3745 13.9926 13.5449 14.0003C13.7153 14.0079 13.8808 14.059 14.0259 14.1487C14.171 14.2384 14.2907 14.3637 14.3736 14.5127C14.4566 14.6617 14.5001 14.8295 14.5 15V23ZM21.5 22C21.7652 22 22.0196 22.1054 22.2071 22.2929C22.3946 22.4804 22.5 22.7348 22.5 23C22.5 23.2652 22.3946 23.5196 22.2071 23.7071C22.0196 23.8946 21.7652 24 21.5 24H17.5C17.3143 24 17.1322 23.9483 16.9743 23.8507C16.8163 23.753 16.6886 23.6133 16.6056 23.4472C16.5225 23.2811 16.4874 23.0952 16.504 22.9102C16.5207 22.7252 16.5886 22.5486 16.7 22.4L20.2975 17.6038C20.3793 17.4948 20.438 17.3703 20.47 17.2379C20.502 17.1054 20.5066 16.9678 20.4835 16.8336C20.4604 16.6993 20.4101 16.5712 20.3357 16.457C20.2612 16.3429 20.1643 16.2452 20.0508 16.1699C19.9372 16.0945 19.8095 16.0432 19.6754 16.019C19.5413 15.9949 19.4037 15.9983 19.271 16.0292C19.1383 16.0602 19.0134 16.1179 18.9038 16.1988C18.7942 16.2798 18.7023 16.3823 18.6338 16.5C18.57 16.6174 18.4834 16.7208 18.3791 16.8041C18.2748 16.8875 18.1548 16.9491 18.0263 16.9853C17.8977 17.0215 17.7633 17.0316 17.6308 17.0151C17.4983 16.9985 17.3704 16.9555 17.2548 16.8887C17.1391 16.8219 17.0381 16.7327 16.9575 16.6262C16.8769 16.5197 16.8185 16.3981 16.7857 16.2687C16.7528 16.1392 16.7462 16.0045 16.7663 15.8725C16.7864 15.7405 16.8327 15.6138 16.9025 15.5C17.2328 14.9284 17.7425 14.4817 18.3525 14.2291C18.9625 13.9766 19.6388 13.9323 20.2765 14.1032C20.9142 14.2741 21.4778 14.6506 21.8798 15.1743C22.2818 15.6981 22.4998 16.3398 22.5 17C22.5021 17.6522 22.2895 18.2869 21.895 18.8062L19.5 22H21.5ZM6.5 10V6H9.5V7C9.5 7.26522 9.60536 7.51957 9.79289 7.70711C9.98043 7.89464 10.2348 8 10.5 8C10.7652 8 11.0196 7.89464 11.2071 7.70711C11.3946 7.51957 11.5 7.26522 11.5 7V6H21.5V7C21.5 7.26522 21.6054 7.51957 21.7929 7.70711C21.9804 7.89464 22.2348 8 22.5 8C22.7652 8 23.0196 7.89464 23.2071 7.70711C23.3946 7.51957 23.5 7.26522 23.5 7V6H26.5V10H6.5Z" fill="white"/>
</svg>
